<?xml version="1.0" encoding="utf-8"?>
<!-- Generator: Adobe Illustrator 21.0.2, SVG Export Plug-In . SVG Version: 6.00 Build 0)  -->
<svg version="1.1" id="Layer_1" xmlns="http://www.w3.org/2000/svg" xmlns:xlink="http://www.w3.org/1999/xlink" x="0px" y="0px"
	 viewBox="0 0 412 190" style="enable-background:new 0 0 412 190;" xml:space="preserve">
<style type="text/css">
	.st0{fill:#FF0000;}
</style>
<g>
	<path class="st0" d="M72.2,47.5l37.1,140.2H79.9L73.4,158H36.1l-6.5,29.6H0.2L37.3,47.5H72.2z M68.5,134.9l-13.5-63h-0.4l-13.5,63
		H68.5z"/>
	<path class="st0" d="M145.6,145.3c0,3.5,0.2,6.8,0.7,9.7c0.5,2.9,1.3,5.5,2.6,7.7c1.2,2.2,2.9,3.9,5.1,5.1c2.2,1.2,4.9,1.9,8.1,1.9
		c3.4,0,6.2-0.6,8.2-1.9c2.1-1.2,3.8-2.9,5-5.1c1.2-2.2,2.1-4.7,2.6-7.7c0.5-2.9,0.7-6.2,0.7-9.7V47.5h28.3v97.8
		c0,8.9-1.2,16.3-3.7,22.1c-2.5,5.8-5.8,10.4-10,13.8c-4.2,3.4-9,5.7-14.3,6.9c-5.4,1.2-10.9,1.8-16.7,1.8c-5.8,0-11.3-0.5-16.7-1.6
		c-5.4-1-10.1-3.2-14.3-6.4c-4.2-3.2-7.5-7.8-10-13.6c-2.5-5.9-3.7-13.5-3.7-23V47.5h28.3V145.3z"/>
	<path class="st0" d="M306.8,70.7h-30.6v117h-28.3v-117h-30.6V47.5h89.5V70.7z"/>
	<path class="st0" d="M317.5,88.2c1-9,3.1-16.7,6.5-23.1c3.3-6.4,8.1-11.4,14.4-15c6.3-3.6,14.7-5.4,25.3-5.4
		c10.6,0,19,1.8,25.3,5.4c6.3,3.6,11.1,8.6,14.4,15c3.3,6.4,5.5,14.1,6.5,23.1c1,9,1.5,18.7,1.5,29.3c0,10.7-0.5,20.5-1.5,29.4
		c-1,8.9-3.1,16.6-6.5,23c-3.3,6.4-8.1,11.3-14.4,14.7c-6.3,3.4-14.7,5.1-25.3,5.1c-10.6,0-19-1.7-25.3-5.1
		c-6.3-3.4-11.1-8.3-14.4-14.7c-3.3-6.4-5.5-14.1-6.5-23c-1-8.9-1.5-18.7-1.5-29.4C316,107,316.5,97.2,317.5,88.2z M345,141.6
		c0.5,6.6,1.4,12,2.8,16.1c1.4,4.1,3.3,7.1,5.9,9c2.6,1.9,5.9,2.8,10.1,2.8c4.2,0,7.6-0.9,10.1-2.8c2.6-1.9,4.5-4.9,5.9-9
		c1.4-4.1,2.3-9.5,2.8-16.1c0.5-6.6,0.7-14.6,0.7-24c0-9.4-0.2-17.4-0.7-23.9c-0.5-6.5-1.4-11.9-2.8-16.1c-1.4-4.2-3.3-7.2-5.9-9.1
		c-2.6-1.9-5.9-2.8-10.1-2.8c-4.2,0-7.6,1-10.1,2.8c-2.6,1.9-4.5,4.9-5.9,9.1c-1.4,4.2-2.3,9.6-2.8,16.1c-0.5,6.5-0.7,14.5-0.7,23.9
		C344.3,127,344.5,135,345,141.6z"/>
	<circle class="st0" cx="261.8" cy="16.6" r="16.6"/>
</g>
</svg>
