<?xml version="1.0" encoding="utf-8"?>
<!-- Generator: Adobe Illustrator 21.1.0, SVG Export Plug-In . SVG Version: 6.00 Build 0)  -->
<svg version="1.1" id="Layer_1" xmlns="http://www.w3.org/2000/svg" xmlns:xlink="http://www.w3.org/1999/xlink" x="0px" y="0px"
	 viewBox="0 0 135 135" style="enable-background:new 0 0 135 135;" xml:space="preserve">
<style type="text/css">
	.st0{fill:#FF0000;}
</style>
<g>
	<g>
		<path class="st0" d="M34.3,134.5c-4.1,0-8.2-0.8-12.1-2.3c-1.6-0.6-2.8-2-3.2-3.7c-0.4-1.7,0.2-3.5,1.4-4.7l14.2-14.2
			c0.1-0.1,0.1-0.2,0.1-0.3s0-0.2-0.1-0.3l-7.9-7.9c-0.2-0.2-0.5-0.2-0.7,0l-14.2,14.2c-1.2,1.2-3,1.8-4.7,1.4s-3.1-1.5-3.7-3.2
			c-4.8-12.3-1.9-26.3,7.4-35.6c8.5-8.5,20.9-11.7,32.4-8.5l26.5-26.5c-3.1-11.4,0-23.7,8.3-32.2C87.3,1,101.4-2,113.8,2.8
			c1.6,0.6,2.8,2,3.2,3.7s-0.2,3.5-1.4,4.7l-14.2,14.2c-0.1,0.1-0.1,0.2-0.1,0.3c0,0.1,0,0.2,0.1,0.3l7.9,7.9c0.2,0.2,0.5,0.2,0.7,0
			l14.2-14.2c1.2-1.2,3-1.8,4.7-1.4c1.7,0.4,3.1,1.5,3.7,3.2c4.8,12.3,1.9,26.3-7.4,35.6c-8.5,8.5-20.9,11.7-32.4,8.5L66.3,92.4
			c3.1,11.4,0,23.7-8.3,32.2C51.6,131,43,134.5,34.3,134.5z M26.3,90.4c2.9,0,5.6,1.1,7.6,3.2l7.9,7.9c2,2,3.2,4.7,3.2,7.6
			s-1.1,5.6-3.2,7.6l-7.4,7.4c6-0.1,11.8-2.4,16.1-6.9c6.3-6.4,8.3-16,5-24.5c-0.7-1.9-0.3-4.1,1.2-5.5l31-31
			c1.4-1.4,3.6-1.9,5.5-1.2c8.5,3.3,18.2,1.3,24.6-5.1c4.3-4.3,6.7-10.1,6.7-16l-7.4,7.4c-2,2-4.7,3.2-7.6,3.2s-5.6-1.1-7.6-3.2
			l-7.9-7.9c-2-2-3.2-4.7-3.2-7.6c0-2.9,1.1-5.6,3.2-7.6l7.4-7.4c-6,0.1-11.8,2.4-16.1,6.9c-6.3,6.4-8.3,16-5,24.5
			c0.7,1.9,0.3,4.1-1.2,5.5l-31,31c-1.4,1.4-3.6,1.9-5.5,1.2C34.1,76.5,24.5,78.5,18,85c-4.3,4.3-6.7,10.1-6.7,16l7.4-7.4
			C20.7,91.6,23.4,90.4,26.3,90.4z"/>
	</g>
</g>
</svg>
