<?xml version="1.0" encoding="utf-8"?>
<!-- Generator: Adobe Illustrator 21.1.0, SVG Export Plug-In . SVG Version: 6.00 Build 0)  -->
<svg version="1.1" id="Layer_1" xmlns="http://www.w3.org/2000/svg" xmlns:xlink="http://www.w3.org/1999/xlink" x="0px" y="0px"
	 viewBox="0 0 135 135" style="enable-background:new 0 0 135 135;" xml:space="preserve">
<style type="text/css">
	.st0{fill:#FF0000;}
</style>
<path class="st0" d="M131.6,79.7l-10.8-8.2c0.1-1.1,0.1-2.3,0.1-3.5c0-1.2,0-2.4-0.1-3.5l10.8-8.2c3.5-2.7,4.4-7.4,2.2-11.2
	l-12.6-21.1c-2.2-3.7-6.7-5.3-10.8-3.9h-0.2l-12.8,5c-2-1.3-4.1-2.5-6.2-3.5L89.3,8.5C88.7,4.2,85,1,80.5,1H55.3
	c-4.4,0-8.2,3.1-8.8,7.4l-1.9,13.2c-2.1,1-4.2,2.2-6.2,3.5l-12.9-5c-4.1-1.6-8.7,0-10.9,3.8L2.1,45.1c-2.2,3.7-1.3,8.5,2.2,11.2
	l10.8,8.2c-0.2,1.3-0.2,2.4-0.2,3.5c0,1.1,0,2.3,0.1,3.5L4.3,79.8C0.9,82.4-0.1,87,2,90.7v0.1L14.6,112c2.1,3.7,6.7,5.4,10.8,3.9
	h0.2l12.8-5c2,1.3,4.1,2.5,6.2,3.5l1.9,13.1c0.6,4.3,4.4,7.5,8.9,7.4h25.2c4.4,0,8.2-3.1,8.8-7.4l1.9-13.2c2.1-1,4.2-2.2,6.2-3.5
	l12.9,5c4.1,1.6,8.8-0.1,10.9-3.8l12.5-21.3C135.9,87,135,82.4,131.6,79.7z M112.3,104.7l-13.6-5.3c-1.9-0.7-4-0.5-5.6,0.7
	c-2.9,2.2-6,3.9-9.4,5.3c-1.9,0.8-3.2,2.4-3.5,4.4l-2,14.1H57.6l-2.1-14.1c-0.3-2-1.6-3.6-3.5-4.4c-3.3-1.3-6.5-3.1-9.3-5.3
	c-1.6-1.2-3.7-1.5-5.6-0.8l-13.5,5.3L13.1,87.2l11.5-8.8c1.6-1.2,2.4-3.1,2.1-5.1c-0.2-1.8-0.4-3.5-0.4-5.3c0-1.8,0.2-3.6,0.4-5.3
	c0.3-1.9-0.6-3.9-2.1-5.1l-11.5-8.8l10.3-17.5l13.6,5.3c1.9,0.7,4,0.4,5.6-0.7c2.9-2.2,6-3.9,9.4-5.3c1.9-0.8,3.2-2.4,3.5-4.4
	l2.1-14h20.7l2.1,14.1c0.3,2,1.6,3.6,3.5,4.4c3.3,1.3,6.5,3.1,9.4,5.3c1.6,1.2,3.7,1.5,5.6,0.8l13.5-5.3l10.4,17.5l-11.5,8.8
	c-1.6,1.2-2.4,3.1-2.1,5.1c0.2,1.8,0.4,3.5,0.4,5.3c0,1.8-0.2,3.6-0.4,5.3c-0.3,1.9,0.6,3.9,2.1,5.1l11.5,8.8L112.3,104.7z"/>
<path class="st0" d="M67.9,37.9c-16.9,0-30.6,13.7-30.6,30.6c0,16.9,13.7,30.6,30.6,30.6c16.9,0,30.6-13.7,30.6-30.6
	C98.5,51.6,84.8,37.9,67.9,37.9z M67.9,88.9c-11.3,0-20.4-9.2-20.4-20.4S56.7,48.1,68,48.1c11.3,0,20.4,9.2,20.4,20.4
	C88.4,79.8,79.2,88.9,67.9,88.9z"/>
</svg>
