<?xml version="1.0" encoding="utf-8"?>
<!-- Generator: Adobe Illustrator 21.1.0, SVG Export Plug-In . SVG Version: 6.00 Build 0)  -->
<svg version="1.1" id="Layer_1" xmlns="http://www.w3.org/2000/svg" xmlns:xlink="http://www.w3.org/1999/xlink" x="0px" y="0px"
	 viewBox="0 0 54 39" style="enable-background:new 0 0 54 39;" xml:space="preserve">
<style type="text/css">
	.st0{fill:#FF0000;}
</style>
<g transform="translate(0,-952.36218)">
	<path class="st0" d="M51.9,971.4l-16.7-17.8c-0.4-0.4-1.1-0.4-1.5,0c-0.4,0.4-0.4,1.1,0,1.5l15.1,16H0.9c-0.6,0-1,0.5-1,1
		c0,0.6,0.5,1,1,1h47.7l-15.1,16c-0.4,0.4-0.4,1.1,0,1.5c0.4,0.4,1,0.4,1.5,0l16.7-17.8C52.3,972.4,52.2,971.8,51.9,971.4
		L51.9,971.4z"/>
</g>
</svg>
